<?xml version="1.0" encoding="utf-8"?>
<!-- Generator: Adobe Illustrator 27.5.0, SVG Export Plug-In . SVG Version: 6.00 Build 0)  -->
<svg version="1.1" xmlns="http://www.w3.org/2000/svg" xmlns:xlink="http://www.w3.org/1999/xlink" x="0px" y="0px"
	 viewBox="0 0 750 500" style="enable-background:new 0 0 750 500;" xml:space="preserve">
<g id="BACKGROUND">
	<linearGradient id="SVGID_1_" gradientUnits="userSpaceOnUse" x1="568.9558" y1="-248.9473" x2="165.6907" y2="788.4438">
		<stop  offset="0" style="stop-color:#FA7ABE"/>
		<stop  offset="0.0389" style="stop-color:#D1669F"/>
		<stop  offset="0.0971" style="stop-color:#9A4B75"/>
		<stop  offset="0.1557" style="stop-color:#6B3451"/>
		<stop  offset="0.2137" style="stop-color:#442134"/>
		<stop  offset="0.2708" style="stop-color:#27131D"/>
		<stop  offset="0.3267" style="stop-color:#11080D"/>
		<stop  offset="0.381" style="stop-color:#040203"/>
		<stop  offset="0.4319" style="stop-color:#000000"/>
		<stop  offset="0.5549" style="stop-color:#020103"/>
		<stop  offset="0.6323" style="stop-color:#08040B"/>
		<stop  offset="0.6973" style="stop-color:#12081A"/>
		<stop  offset="0.7553" style="stop-color:#200F2F"/>
		<stop  offset="0.8087" style="stop-color:#33184A"/>
		<stop  offset="0.8587" style="stop-color:#4A236B"/>
		<stop  offset="0.9061" style="stop-color:#662F92"/>
		<stop  offset="0.9514" style="stop-color:#853EBF"/>
		<stop  offset="0.9935" style="stop-color:#A84EF2"/>
		<stop  offset="1" style="stop-color:#AE51FA"/>
	</linearGradient>
	<rect style="fill:url(#SVGID_1_);" width="750" height="500"/>
</g>
<g id="OBJECTS">
	<g>
		<defs>
			<rect id="SVGID_00000015350594531087275070000009040358175292001188_" width="750" height="500"/>
		</defs>
		<clipPath id="SVGID_00000080915363271582467800000009722949083940469900_">
			<use xlink:href="#SVGID_00000015350594531087275070000009040358175292001188_"  style="overflow:visible;"/>
		</clipPath>
		<g style="clip-path:url(#SVGID_00000080915363271582467800000009722949083940469900_);">
			<path style="fill:none;stroke:#51E9FA;stroke-width:0.5;stroke-linecap:round;stroke-miterlimit:10;stroke-dasharray:0,2;" d="
				M-128.613,160.941C36.94,282.817,210.382,525.341,114.384,335.48C18.386,145.619-118.654,193.503-70.386,122.027
				C-22.117,50.552,85.358-59.986-11.673-98.358s166.311,500.882,55.037,546.854C-67.909,494.469-205.346,104.452-128.613,160.941z"
				/>
			<path style="fill:none;stroke:#51E8FA;stroke-width:0.5;stroke-linecap:round;stroke-miterlimit:10;stroke-dasharray:0,2;" d="
				M43.385,447.657c-111.053,46.039-246.947-342.351-170.158-286.668C38.375,281.72,208.963,523.636,112.535,334.919
				S-118.037,192.702-70.25,121.946C-22.462,51.19,84.905-58.852-10.835-97.479C-106.574-136.106,154.679,401.412,43.385,447.657z"
				/>
			<path style="fill:none;stroke:#52E7FA;stroke-width:0.5;stroke-linecap:round;stroke-miterlimit:10;stroke-dasharray:0,2;" d="
				M43.638,446.854c-110.832,46.105-244.971-340.956-168.339-285.781C40.505,280.02,207.777,521.967,110.919,334.395
				S-117.189,191.937-69.881,121.9S84.683-57.682-9.765-96.564S154.953,400.336,43.638,446.854z"/>
			<path style="fill:none;stroke:#52E7FA;stroke-width:0.5;stroke-linecap:round;stroke-miterlimit:10;stroke-dasharray:0,2;" d="
				M44.211,446.085C-66.4,492.256-198.893,106.672-122.309,161.19C42.718,278.671,206.91,520.332,109.622,333.904
				S-116.02,191.206-69.194,121.888S84.782-56.478-8.375-95.614C-101.531-134.751,155.546,399.295,44.211,446.085z"/>
			<path style="fill:none;stroke:#53E6FA;stroke-width:0.5;stroke-linecap:round;stroke-miterlimit:10;stroke-dasharray:0,2;" d="
				M45.062,445.351c-110.391,46.237-241.239-337.873-164.701-284.008C45.207,277.355,206.322,518.732,108.603,333.449
				C10.885,148.166-114.573,190.509-68.227,121.912C-21.881,53.314,85.159-55.239-6.707-94.63
				C-98.572-134.021,156.418,398.288,45.062,445.351z"/>
			<path style="fill:none;stroke:#53E5FA;stroke-width:0.5;stroke-linecap:round;stroke-miterlimit:10;stroke-dasharray:0,2;" d="
				M46.183,444.653c-110.17,46.304-239.376-336.333-162.882-283.122C47.962,276.073,206.003,517.167,107.855,333.029
				S-112.856,189.849-66.991,121.97C-21.126,54.092,85.805-53.964-4.769-93.61S157.559,397.317,46.183,444.653z"/>
			<path style="fill:none;stroke:#54E4FA;stroke-width:0.5;stroke-linecap:round;stroke-miterlimit:10;stroke-dasharray:0,2;" d="
				M47.559,443.969C-62.28,490.601-189.956,109.175-113.505,161.734c164.473,113.072,319.444,353.884,220.865,170.89
				s-218.245-143.421-172.861-210.58S86.706-52.675-2.576-92.576C-91.858-132.477,159.068,396.627,47.559,443.969z"/>
			<path style="fill:none;stroke:#54E3FA;stroke-width:0.5;stroke-linecap:round;stroke-miterlimit:10;stroke-dasharray:0,2;" d="
				M49.191,443.338c-109.599,46.74-235.656-333.257-159.244-281.349C54.227,273.589,206.132,514.121,107.123,332.272
				S-108.657,188.61-63.753,122.171C-18.85,55.731,87.864-51.332-0.127-91.488C-88.118-131.644,160.74,395.767,49.191,443.338z"/>
			<path style="fill:none;stroke:#55E3FA;stroke-width:0.5;stroke-linecap:round;stroke-miterlimit:10;stroke-dasharray:0,2;" d="
				M51.065,442.744c-109.361,46.847-233.8-331.721-157.425-280.462C57.725,272.408,206.567,512.661,107.128,331.956
				S-106.187,188.054-61.764,122.334C-17.341,56.613,89.264-49.954,2.565-90.364C-84.135-130.775,162.654,394.942,51.065,442.744z"
				/>
			<path style="fill:none;stroke:#55E2FA;stroke-width:0.5;stroke-linecap:round;stroke-miterlimit:10;stroke-dasharray:0,2;" d="
				M53.173,442.186C-55.949,489.14-178.772,112-102.433,162.611C61.453,271.262,207.235,511.237,107.366,331.676
				S-103.483,187.534-59.54,122.533C-15.598,57.532,90.898-48.538,5.49-89.204S164.802,394.154,53.173,442.186z"/>
			<path style="fill:none;stroke:#56E1FA;stroke-width:0.5;stroke-linecap:round;stroke-miterlimit:10;stroke-dasharray:0,2;" d="
				M55.506,441.665c-108.883,47.06-230.093-328.652-153.787-278.689C65.402,270.152,208.129,509.85,107.83,331.434
				S-100.554,187.051-57.092,122.769C-13.631,58.488,92.756-47.086,8.64-88.007C-75.477-128.927,167.174,393.402,55.506,441.665z"/>
			<path style="fill:none;stroke:#56E0FA;stroke-width:0.5;stroke-linecap:round;stroke-miterlimit:10;stroke-dasharray:0,2;" d="
				M58.055,441.181C-50.59,488.346-170.189,114.061-93.913,163.379C69.563,269.078,209.238,508.5,108.508,331.228
				C7.779,153.957-97.409,186.604-54.429,123.043C-11.448,59.481,94.83-45.597,12.005-86.772
				C-70.82-127.947,169.762,392.686,58.055,441.181z"/>
			<path style="fill:none;stroke:#57E0FA;stroke-width:0.5;stroke-linecap:round;stroke-miterlimit:10;stroke-dasharray:0,2;" d="
				M60.81,440.734c-108.407,47.27-226.396-325.589-150.149-276.916C73.926,268.04,210.553,507.187,109.394,331.06
				C8.235,154.933-94.058,186.196-51.558,123.353C-9.058,60.511,97.111-44.071,15.578-85.501
				C-65.956-126.931,172.557,392.008,60.81,440.734z"/>
			<path style="fill:none;stroke:#57DFFA;stroke-width:0.5;stroke-linecap:round;stroke-miterlimit:10;stroke-dasharray:0,2;" d="
				M63.763,440.325C-44.406,487.7-160.788,116.267-84.567,164.296C78.483,267.039,212.067,505.912,110.477,330.93
				S-90.51,185.824-48.49,123.701S99.59-42.507,19.348-84.192C-60.894-125.876,175.549,391.367,63.763,440.325z"/>
			<path style="fill:none;stroke:#58DEFA;stroke-width:0.5;stroke-linecap:round;stroke-miterlimit:10;stroke-dasharray:0,2;" d="
				M66.905,439.954C-41.026,487.432-155.804,117.425-79.606,164.812C83.225,266.075,213.769,504.675,111.749,330.837
				S-86.772,185.491-45.233,124.088s147.49-164.992,68.54-206.932C-55.644-124.784,178.73,390.763,66.905,439.954z"/>
			<path style="fill:none;stroke:#58DDFA;stroke-width:0.5;stroke-linecap:round;stroke-miterlimit:10;stroke-dasharray:0,2;" d="
				M70.226,439.621C-37.467,487.202-150.642,118.62-74.466,165.365c162.608,99.783,290.116,338.11,187.667,165.417
				S-82.855,185.196-41.797,124.512C-0.739,63.828,105.104-39.265,27.445-81.459C-50.214-123.654,182.091,390.197,70.226,439.621z"
				/>
			<path style="fill:none;stroke:#59DCFA;stroke-width:0.5;stroke-linecap:round;stroke-miterlimit:10;stroke-dasharray:0,2;" d="
				M73.718,439.327C-33.737,487.01-145.313,119.853-69.155,165.958c162.38,98.303,286.858,336.358,183.978,164.809
				S-78.767,184.939-38.189,124.975C2.388,65.01,108.122-37.586,31.754-80.035C-44.614-122.485,185.622,389.669,73.718,439.327z"/>
			<path style="fill:none;stroke:#59DCFA;stroke-width:0.5;stroke-linecap:round;stroke-miterlimit:10;stroke-dasharray:0,2;" d="
				M77.372,439.071C-29.846,486.856-139.824,121.123-63.682,166.588c162.148,96.821,283.599,334.605,180.29,164.201
				C13.298,160.385-74.517,184.722-34.42,125.476S111.301-35.869,36.225-78.573C-38.851-121.277,189.316,389.18,77.372,439.071z"/>
			<path style="fill:none;stroke:#5ADBFA;stroke-width:0.5;stroke-linecap:round;stroke-miterlimit:10;stroke-dasharray:0,2;" d="
				M81.179,438.854c-106.98,47.886-215.363-316.424-139.235-271.596c161.911,95.34,280.341,332.853,176.601,163.593
				S-70.115,184.543-30.499,126.017C9.118,67.491,114.634-34.112,40.849-77.071S193.162,388.729,81.179,438.854z"/>
			<path style="fill:none;stroke:#5ADAFA;stroke-width:0.5;stroke-linecap:round;stroke-miterlimit:10;stroke-dasharray:0,2;" d="
				M85.129,438.677c-106.743,47.987-213.533-314.9-137.416-270.71c161.67,93.858,277.082,331.1,172.912,162.985
				S-65.568,184.403-26.433,126.597C12.702,68.79,118.11-32.316,45.616-75.53C-26.877-118.744,197.151,388.317,85.129,438.677z"/>
			<path style="fill:none;stroke:#5BD9FA;stroke-width:0.5;stroke-linecap:round;stroke-miterlimit:10;stroke-dasharray:0,2;" d="
				M89.214,438.539C-17.291,486.627-122.492,125.163-46.382,168.717c161.424,92.376,273.824,329.347,169.224,162.376
				S-60.887,184.304-22.233,127.217C16.422,70.13,121.721-30.481,50.519-73.95C-20.683-117.418,201.276,387.944,89.214,438.539z"/>
			<path style="fill:none;stroke:#5BD8FA;stroke-width:0.5;stroke-linecap:round;stroke-miterlimit:10;stroke-dasharray:0,2;" d="
				M93.425,438.442C-12.843,486.629-116.456,126.587-40.352,169.505C120.821,260.399,230.213,497.1,125.183,331.274
				S-56.08,184.244-17.906,127.876C20.267,71.508,125.457-28.606,55.547-72.329C-14.364-116.052,205.526,387.611,93.425,438.442z"/>
			<path style="fill:none;stroke:#5CD8FA;stroke-width:0.5;stroke-linecap:round;stroke-miterlimit:10;stroke-dasharray:0,2;" d="
				M97.753,438.384C-8.279,486.67-110.307,128.05-34.206,170.334c160.917,89.411,267.306,325.842,161.846,161.16
				S-51.157,184.224-13.464,128.576C24.23,72.928,129.311-26.69,60.691-70.668C-7.928-114.647,209.893,387.317,97.753,438.384z"/>
			<path style="fill:none;stroke:#5CD7FA;stroke-width:0.5;stroke-linecap:round;stroke-miterlimit:10;stroke-dasharray:0,2;" d="
				M102.189,438.367C-3.606,486.751-104.052,129.553-27.951,171.204c160.657,87.929,264.048,324.09,158.158,160.552
				S-46.125,184.245-8.913,129.316S133.272-24.734,65.944-68.967C-1.384-113.2,214.368,387.063,102.189,438.367z"/>
			<path style="fill:none;stroke:#5DD6FA;stroke-width:0.5;stroke-linecap:round;stroke-miterlimit:10;stroke-dasharray:0,2;" d="
				M106.723,438.391C1.164,486.873-97.702,131.096-21.598,172.114c160.391,86.447,260.789,322.337,154.469,159.944
				S-40.995,184.307-4.263,130.097S137.332-22.737,71.295-67.225C5.259-111.713,218.941,386.85,106.723,438.391z"/>
			<path style="fill:none;stroke:#5DD5FA;stroke-width:0.5;stroke-linecap:round;stroke-miterlimit:10;stroke-dasharray:0,2;" d="
				M111.347,438.456C6.025,487.035-91.265,132.679-15.154,173.066c160.12,84.965,257.531,320.584,150.78,159.336
				S-35.775,184.409,0.476,130.919C36.727,77.429,141.481-20.699,76.737-65.442C11.992-110.185,223.604,386.678,111.347,438.456z"/>
			<path style="fill:none;stroke:#5ED5FA;stroke-width:0.5;stroke-linecap:round;stroke-miterlimit:10;stroke-dasharray:0,2;" d="
				M116.052,438.562C10.966,487.237-84.749,134.303-8.631,174.058c159.844,83.484,254.272,318.832,147.092,158.728
				C31.281,172.682-30.475,184.553,5.296,131.783c35.77-52.771,140.416-150.403,76.963-195.4
				C18.805-108.615,228.348,386.546,116.052,438.562z"/>
			<path style="fill:none;stroke:#5ED4FA;stroke-width:0.5;stroke-linecap:round;stroke-miterlimit:10;stroke-dasharray:0,2;" d="
				M120.829,438.71C15.979,487.481-78.165,135.967-2.035,175.093c159.563,82.004,251.014,317.079,143.403,158.12
				s-166.47-148.474-131.18-200.525S150.014-16.499,87.852-61.752C25.69-107.004,233.164,386.456,120.829,438.71z"/>
			<path style="fill:none;stroke:#5ED3FA;stroke-width:0.5;stroke-linecap:round;stroke-miterlimit:10;stroke-dasharray:0,2;" d="
				M125.668,438.899C21.055,487.767-71.521,137.673,4.624,176.169C163.9,256.693,252.379,491.496,144.338,333.681
				S-19.667,184.966,15.143,133.635C49.952,82.303,154.379-14.337,93.509-59.844C32.639-105.351,238.042,386.407,125.668,438.899z"
				/>
			<path style="fill:none;stroke:#5FD2FA;stroke-width:0.5;stroke-linecap:round;stroke-miterlimit:10;stroke-dasharray:0,2;" d="
				M130.562,439.131C26.184,488.093-64.827,139.42,11.336,177.287c158.984,79.045,244.496,313.574,136.025,156.903
				S-14.177,185.236,20.151,134.624S158.798-12.132,99.219-57.894C39.64-103.656,242.975,386.4,130.562,439.131z"/>
			<path style="fill:none;stroke:#5FD1FA;stroke-width:0.5;stroke-linecap:round;stroke-miterlimit:10;stroke-dasharray:0,2;" d="
				M135.5,439.405C31.358,488.462-58.09,141.209,18.093,178.448C176.78,256.015,259.331,490.27,150.43,334.744
				S-8.643,185.548,25.204,135.655C59.052,85.762,163.262-9.884,104.975-55.901C46.687-101.918,247.952,386.434,135.5,439.405z"/>
			<path style="fill:none;stroke:#60D1FA;stroke-width:0.5;stroke-linecap:round;stroke-miterlimit:10;stroke-dasharray:0,2;" d="
				M140.474,439.723C36.567,488.873-51.321,143.04,24.886,179.652c158.383,76.09,237.979,310.069,128.648,155.687
				C44.204,180.958-3.074,185.903,30.294,136.73S167.762-7.594,110.766-53.866C53.77-100.137,252.964,386.512,140.474,439.723z"/>
			<path style="fill:none;stroke:#60D0FA;stroke-width:0.5;stroke-linecap:round;stroke-miterlimit:10;stroke-dasharray:0,2;" d="
				M145.475,440.083C41.804,489.327-44.528,144.914,31.706,180.899c158.074,74.615,234.721,308.316,124.96,155.079
				S2.523,186.301,35.41,137.847C68.296,89.393,172.288-5.26,116.584-51.787C60.879-98.314,258.004,386.631,145.475,440.083z"/>
			<path style="fill:none;stroke:#61CFFA;stroke-width:0.5;stroke-linecap:round;stroke-miterlimit:10;stroke-dasharray:0,2;" d="
				M150.493,440.486C47.058,489.823-37.721,146.831,38.544,182.189C196.303,255.33,270.006,488.753,159.815,336.66
				S8.138,186.743,40.543,139.008C72.949,91.273,176.833-2.884,122.419-49.665S263.061,386.794,150.493,440.486z"/>
			<path style="fill:none;stroke:#61CEFA;stroke-width:0.5;stroke-linecap:round;stroke-miterlimit:10;stroke-dasharray:0,2;" d="
				M155.521,440.934C52.32,490.362-30.908,148.791,45.391,183.523c157.439,71.668,228.203,304.811,117.582,153.863
				C52.352,186.438,13.761,187.228,45.686,140.213C77.611,93.197,181.386-0.463,128.264-47.5
				C75.142-94.536,268.127,387,155.521,440.934z"/>
			<path style="fill:none;stroke:#62CDFA;stroke-width:0.5;stroke-linecap:round;stroke-miterlimit:10;stroke-dasharray:0,2;" d="
				M160.548,441.425C57.583,490.945-24.098,150.794,52.237,184.9c157.113,70.198,224.945,303.059,113.893,153.255
				S19.384,187.757,50.829,141.461s135.11-139.46,83.28-186.752S273.193,387.249,160.548,441.425z"/>
			<path style="fill:none;stroke:#62CDFA;stroke-width:0.5;stroke-linecap:round;stroke-miterlimit:10;stroke-dasharray:0,2;" d="
				M165.567,441.96C62.836,491.571-17.3,152.841,59.075,186.322c156.78,68.729,221.686,301.306,110.205,152.647
				S24.999,188.33,55.962,142.754S190.483,4.509,139.944-43.037S278.25,387.543,165.567,441.96z"/>
			<path style="fill:none;stroke:#63CCFA;stroke-width:0.5;stroke-linecap:round;stroke-miterlimit:10;stroke-dasharray:0,2;" d="
				M170.567,442.54C68.071,492.242-10.524,154.933,65.894,187.789c156.442,67.262,218.428,299.553,106.516,152.039
				C60.499,192.313,30.595,188.948,61.078,144.091C91.561,99.234,195.009,7.062,145.761-40.739
				C96.514-88.539,283.288,387.88,170.567,442.54z"/>
			<path style="fill:none;stroke:#63CBFA;stroke-width:0.5;stroke-linecap:round;stroke-miterlimit:10;stroke-dasharray:0,2;" d="
				M175.54,443.164C73.279,492.956-3.778,157.069,72.686,189.3c156.098,65.798,215.169,297.801,102.828,151.431
				C63.172,194.36,36.164,189.61,66.166,145.473C96.169,101.335,199.508,9.66,151.552-38.396S288.3,388.261,175.54,443.164z"/>
			<path style="fill:none;stroke:#64CAFA;stroke-width:0.5;stroke-linecap:round;stroke-miterlimit:10;stroke-dasharray:0,2;" d="
				M180.478,443.834C78.45,493.715,2.928,159.25,79.443,190.856c155.748,64.336,211.91,296.048,99.139,150.823
				S41.697,190.318,71.219,146.9c29.521-43.418,132.752-134.597,86.087-182.908C110.642-84.318,293.275,388.687,180.478,443.834z"/>
			<path style="fill:none;stroke:#64C9FA;stroke-width:0.5;stroke-linecap:round;stroke-miterlimit:10;stroke-dasharray:0,2;" d="
				M185.37,444.549C83.577,494.519,9.587,161.476,86.154,192.458c155.391,62.876,208.652,294.296,95.45,150.214
				S47.186,191.071,76.226,148.372c29.041-42.699,132.162-133.381,86.789-181.947C117.643-82.14,298.206,389.158,185.37,444.549z"/>
			<path style="fill:none;stroke:#65C9FA;stroke-width:0.5;stroke-linecap:round;stroke-miterlimit:10;stroke-dasharray:0,2;" d="
				M190.209,445.31C88.649,495.368,16.188,163.748,92.812,194.105c155.029,61.42,205.393,292.543,91.761,149.606
				S52.62,191.869,81.18,149.89S212.753,17.724,168.671-31.096C124.59-79.916,303.082,389.675,190.209,445.31z"/>
			<path style="fill:none;stroke:#65C8FA;stroke-width:0.5;stroke-linecap:round;stroke-miterlimit:10;stroke-dasharray:0,2;" d="
				M194.984,446.116C93.659,496.263,22.722,166.066,99.406,195.798c154.66,59.966,202.135,290.79,88.073,148.998
				S57.991,192.714,86.071,151.454s130.983-130.95,88.193-180.025C131.474-77.646,307.895,390.236,194.984,446.116z"/>
			<path style="fill:none;stroke:#66C7FA;stroke-width:0.5;stroke-linecap:round;stroke-miterlimit:10;stroke-dasharray:0,2;" d="
				M199.688,446.969C98.596,497.203,29.182,168.43,105.929,197.538c154.285,58.515,198.876,289.038,84.384,148.39
				S63.291,193.604,90.89,153.064C118.489,112.523,221.284,23.33,179.785-26C138.286-75.33,312.637,390.844,199.688,446.969z"/>
			<path style="fill:none;stroke:#66C6FA;stroke-width:0.5;stroke-linecap:round;stroke-miterlimit:10;stroke-dasharray:0,2;" d="
				M204.311,447.868c-100.859,50.32-168.754-277.028-91.94-248.545c153.904,57.068,195.618,287.285,80.695,147.782
				S68.51,194.541,95.628,154.72c27.118-39.821,129.804-128.518,89.597-178.103S317.298,391.497,204.311,447.868z"/>
			<path style="fill:none;stroke:#67C6FA;stroke-width:0.5;stroke-linecap:round;stroke-miterlimit:10;stroke-dasharray:0,2;" d="
				M208.845,448.814c-100.625,50.407-167.005-275.516-90.121-247.658c153.517,55.623,192.359,285.533,77.007,147.174
				S73.64,195.525,100.277,156.424S229.492,29.122,190.576-20.718C151.66-70.557,321.868,392.197,208.845,448.814z"/>
			<path style="fill:none;stroke:#67C5FA;stroke-width:0.5;stroke-linecap:round;stroke-miterlimit:10;stroke-dasharray:0,2;" d="
				M213.28,449.807C112.887,500.3,48.02,175.804,124.978,203.036c153.124,54.183,189.1,283.78,73.318,146.566
				S78.67,196.556,104.827,158.174S233.452,32.088,195.828-18.007C158.203-68.101,326.341,392.943,213.28,449.807z"/>
			<path style="fill:none;stroke:#68C4FA;stroke-width:0.5;stroke-linecap:round;stroke-miterlimit:10;stroke-dasharray:0,2;" d="
				M218.192,450.848c-100.16,50.578-163.518-272.491-86.483-245.885c152.724,52.746,185.842,282.027,69.629,145.958
				s-117.16-153.286-91.484-190.949c25.676-37.663,128.036-124.871,91.703-175.22S331.29,393.737,218.192,450.848z"/>
			<path style="fill:none;stroke:#68C3FA;stroke-width:0.5;stroke-linecap:round;stroke-miterlimit:10;stroke-dasharray:0,2;" d="
				M223.23,451.936c-99.927,50.662-161.78-270.978-84.664-244.998c152.318,51.314,182.583,280.275,65.941,145.35
				s-114.695-153.527-89.5-190.47c25.195-36.943,127.446-123.655,92.405-174.259C172.37-63.045,336.365,394.577,223.23,451.936z"/>
			<path style="fill:none;stroke:#69C2FA;stroke-width:0.5;stroke-linecap:round;stroke-miterlimit:10;stroke-dasharray:0,2;" d="
				M228.152,453.072c-99.694,50.747-160.045-269.464-82.844-244.112c151.905,49.885,179.325,278.522,62.252,144.741
				S95.33,199.934,120.045,163.711c24.715-36.224,126.857-122.439,93.106-173.298C179.401-60.446,341.324,395.465,228.152,453.072z"
				/>
			<path style="fill:none;stroke:#69C2FA;stroke-width:0.5;stroke-linecap:round;stroke-miterlimit:10;stroke-dasharray:0,2;" d="
				M232.95,454.256c-99.462,50.83-158.314-267.95-81.025-243.225c151.487,48.461,176.066,276.77,58.563,144.133
				s-109.764-154.008-85.53-189.512c24.234-35.505,126.267-121.223,93.808-172.337C186.308-57.798,346.159,396.401,232.95,454.256z"
				/>
			<path style="fill:none;stroke:#6AC1FA;stroke-width:0.5;stroke-linecap:round;stroke-miterlimit:10;stroke-dasharray:0,2;" d="
				M237.616,455.489C138.386,506.402,81.03,189.054,158.41,213.15c151.062,47.041,172.807,275.017,54.875,143.525
				s-107.299-154.248-83.545-189.033c23.753-34.785,125.677-120.007,94.51-171.376C193.082-55.102,350.862,397.385,237.616,455.489z
				"/>
			<path style="fill:none;stroke:#6AC0FA;stroke-width:0.5;stroke-linecap:round;stroke-miterlimit:10;stroke-dasharray:0,2;" d="
				M242.142,456.771c-98.998,50.996-154.862-264.919-77.387-241.452c150.631,45.626,169.549,273.265,51.186,142.917
				s-104.833-154.489-81.56-188.555S259.468,50.889,229.592-0.734C199.716-52.357,355.424,398.417,242.142,456.771z"/>
			<path style="fill:none;stroke:#6BBFFA;stroke-width:0.5;stroke-linecap:round;stroke-miterlimit:10;stroke-dasharray:0,2;" d="
				M246.518,458.101c-98.766,51.078-153.141-263.402-75.568-240.565c150.194,44.216,166.29,271.512,47.497,142.309
				s-102.368-154.73-79.576-188.076C161.663,138.423,263.37,54.193,234.786,2.315S359.837,399.497,246.518,458.101z"/>
			<path style="fill:none;stroke:#6BBEFA;stroke-width:0.5;stroke-linecap:round;stroke-miterlimit:10;stroke-dasharray:0,2;" d="
				M250.737,459.481c-98.534,51.16-151.423-261.885-73.749-239.679c149.751,42.811,163.032,269.759,43.809,141.701
				s-99.902-154.97-77.591-187.597c22.311-32.627,123.909-116.36,96.616-168.493C212.529-46.72,364.092,400.627,250.737,459.481z"/>
			<path style="fill:none;stroke:#6CBEFA;stroke-width:0.5;stroke-linecap:round;stroke-miterlimit:10;stroke-dasharray:0,2;" d="
				M254.79,460.911c-98.303,51.241-149.709-260.366-71.93-238.792c149.301,41.411,159.773,268.007,40.12,141.093
				C103.327,236.297,125.544,208,147.374,176.093c21.831-31.907,123.319-115.144,97.318-167.532
				C218.691-43.827,368.181,401.805,254.79,460.911z"/>
			<path style="fill:none;stroke:#6CBDFA;stroke-width:0.5;stroke-linecap:round;stroke-miterlimit:10;stroke-dasharray:0,2;" d="
				M258.669,462.39c-98.072,51.321-147.998-258.845-70.111-237.906c148.846,40.016,156.515,266.254,36.431,140.485
				s-94.971-155.451-73.621-186.639c21.35-31.188,122.73-113.928,98.02-166.571C224.678-40.884,372.096,403.034,258.669,462.39z"/>
			<path style="fill:none;stroke:#6CBCFA;stroke-width:0.5;stroke-linecap:round;stroke-miterlimit:10;stroke-dasharray:0,2;" d="
				M262.364,463.92c-97.841,51.402-146.291-257.324-68.292-237.019c148.384,38.628,153.256,264.502,32.743,139.877
				s-92.506-155.692-71.637-186.161c20.869-30.469,122.14-112.713,98.722-165.61C230.481-37.891,375.826,404.311,262.364,463.92z"/>
			<path style="fill:none;stroke:#6DBBFA;stroke-width:0.5;stroke-linecap:round;stroke-miterlimit:10;stroke-dasharray:0,2;" d="
				M265.867,465.5c-97.61,51.481-144.587-255.801-66.473-236.133c147.917,37.244,149.997,262.749,29.054,139.268
				s-90.04-155.933-69.652-185.682c20.388-29.749,121.551-111.497,99.424-164.649C236.093-34.847,379.365,405.639,265.867,465.5z"/>
			<path style="fill:none;stroke:#6DBBFA;stroke-width:0.5;stroke-linecap:round;stroke-miterlimit:10;stroke-dasharray:0,2;" d="
				M269.169,467.131c-97.379,51.56-142.887-254.277-64.654-235.246c147.443,35.867,146.739,260.996,25.365,138.66
				s-87.575-156.173-67.667-185.203c19.908-29.03,120.961-110.281,100.126-163.688S382.703,407.017,269.169,467.131z"/>
			<path style="fill:none;stroke:#6EBAFA;stroke-width:0.5;stroke-linecap:round;stroke-miterlimit:10;stroke-dasharray:0,2;" d="
				M272.261,468.813c-97.149,51.639-141.19-252.751-62.835-234.36c146.964,34.495,143.48,259.244,21.677,138.052
				c-121.804-121.191-85.109-156.414-65.682-184.724c19.427-28.31,120.372-109.065,100.827-162.727S385.83,408.446,272.261,468.813z
				"/>
			<path style="fill:none;stroke:#6EB9FA;stroke-width:0.5;stroke-linecap:round;stroke-miterlimit:10;stroke-dasharray:0,2;" d="
				M275.135,470.547c-96.918,51.717-139.496-251.223-61.016-233.473c146.48,33.13,140.222,257.491,17.988,137.444
				s-82.644-156.654-63.697-184.245c18.946-27.591,119.782-107.849,101.529-161.766C251.686-25.41,388.738,409.926,275.135,470.547z
				"/>
			<path style="fill:none;stroke:#6FB8FA;stroke-width:0.5;stroke-linecap:round;stroke-miterlimit:10;stroke-dasharray:0,2;" d="
				M277.78,472.332c-96.688,51.795-137.806-249.694-59.197-232.586c145.989,31.771,136.963,255.739,14.299,136.836
				s-80.178-156.895-61.712-183.767C189.635,165.943,290.362,86.181,273.401,32.01C256.44-22.162,391.419,411.457,277.78,472.332z"
				/>
			<path style="fill:none;stroke:#6FB7FA;stroke-width:0.5;stroke-linecap:round;stroke-miterlimit:10;stroke-dasharray:0,2;" d="
				M280.188,474.168c-96.459,51.872-136.118-248.162-57.378-231.7c145.493,30.419,133.705,253.986,10.611,136.228
				s-77.713-157.136-59.728-183.288S292.296,89.991,276.626,35.565C260.956-18.862,393.862,413.039,280.188,474.168z"/>
			<path style="fill:none;stroke:#70B7FA;stroke-width:0.5;stroke-linecap:round;stroke-miterlimit:10;stroke-dasharray:0,2;" d="
				M282.35,476.057c-96.229,51.949-134.434-246.629-55.559-230.813c144.991,29.074,130.446,252.234,6.922,135.62
				s-75.247-157.376-57.743-182.809S293.984,93.854,279.606,39.172C265.227-15.509,396.058,414.673,282.35,476.057z"/>
			<path style="fill:none;stroke:#70B6FA;stroke-width:0.5;stroke-linecap:round;stroke-miterlimit:10;stroke-dasharray:0,2;" d="
				M284.257,477.999c-96,52.025-132.753-245.094-53.74-229.927c144.484,27.735,127.187,250.481,3.233,135.012
				s-72.782-157.617-55.758-182.33c17.024-24.713,117.424-102.986,104.337-157.922C269.242-12.104,397.999,416.359,284.257,477.999z
				"/>
			<path style="fill:none;stroke:#71B5FA;stroke-width:0.5;stroke-linecap:round;stroke-miterlimit:10;stroke-dasharray:0,2;" d="
				M285.899,479.993c-95.77,52.1-131.075-243.556-51.921-229.04c143.972,26.403,123.929,248.728-0.455,134.404
				S163.207,227.5,179.75,203.506c16.543-23.994,116.834-101.77,105.039-156.961C272.993-8.646,399.676,418.097,285.899,479.993z"/>
			<path style="fill:none;stroke:#71B4FA;stroke-width:0.5;stroke-linecap:round;stroke-miterlimit:10;stroke-dasharray:0,2;" d="
				M287.268,482.041c-95.541,52.176-129.401-242.016-50.102-228.153c143.454,25.078,120.67,246.976-4.144,133.796
				s-67.851-158.098-51.788-181.373c16.062-23.274,116.245-100.554,105.741-156C276.47-5.135,401.079,419.888,287.268,482.041z"/>
			<path style="fill:none;stroke:#72B3FA;stroke-width:0.5;stroke-linecap:round;stroke-miterlimit:10;stroke-dasharray:0,2;" d="
				M288.354,484.142c-95.312,52.251-127.729-240.474-48.283-227.267c142.932,23.761,117.412,245.223-7.833,133.188
				s-65.385-158.339-49.804-180.894C198.016,186.614,298.09,109.83,288.877,54.13C279.665-1.571,402.198,421.732,288.354,484.142z"
				/>
			<path style="fill:none;stroke:#72B3FA;stroke-width:0.5;stroke-linecap:round;stroke-miterlimit:10;stroke-dasharray:0,2;" d="
				M288.961,486.296c-95.084,52.325-126.06-238.929-46.464-226.38c142.405,22.451,114.153,243.471-11.521,132.579
				s-62.92-158.579-47.819-180.415c15.101-21.836,115.066-98.123,107.145-154.078C282.381,2.047,402.839,423.629,288.961,486.296z"
				/>
			<path style="fill:none;stroke:#73B2FA;stroke-width:0.5;stroke-linecap:round;stroke-miterlimit:10;stroke-dasharray:0,2;" d="
				M289.269,488.504c-94.855,52.399-124.394-237.381-44.645-225.493c141.873,21.148,110.894,241.718-15.21,131.971
				c-126.105-109.747-60.454-158.82-45.834-179.936c14.62-21.116,114.476-96.907,107.847-153.117
				C284.797,5.719,403.18,425.579,289.269,488.504z"/>
			<path style="fill:none;stroke:#73B1FA;stroke-width:0.5;stroke-linecap:round;stroke-miterlimit:10;stroke-dasharray:0,2;" d="
				M289.274,490.973c-94.627,52.472-115.927-258.768-42.826-224.607c129.302,60.423,107.636,239.965-18.899,131.363
				c-126.535-108.602-57.989-159.061-43.849-179.457c14.139-20.397,113.887-95.691,108.549-152.156
				C286.911,9.651,403.219,427.789,289.274,490.973z"/>
			<path style="fill:none;stroke:#74B0FA;stroke-width:0.5;stroke-linecap:round;stroke-miterlimit:10;stroke-dasharray:0,2;" d="
				M288.969,493.295c-94.399,52.545-114.352-257.515-41.007-223.72c128.981,59.428,104.377,238.213-22.588,130.755
				s-55.523-159.301-41.865-178.979c13.659-19.677,113.297-94.475,109.25-151.195C288.714,13.436,402.947,429.852,288.969,493.295z"
				/>
			<path style="fill:none;stroke:#74B0FA;stroke-width:0.5;stroke-linecap:round;stroke-miterlimit:10;stroke-dasharray:0,2;" d="
				M288.344,495.672c-94.171,52.618-112.786-256.255-39.188-222.834c128.666,58.427,101.119,236.46-26.276,130.147
				C95.485,296.672,169.822,243.443,183,224.485c13.178-18.958,112.708-93.26,109.952-150.234
				C290.197,17.276,402.354,431.969,288.344,495.672z"/>
			<path style="fill:none;stroke:#75AFFA;stroke-width:0.5;stroke-linecap:round;stroke-miterlimit:10;stroke-dasharray:0,2;" d="
				M287.388,498.103c-93.944,52.69-111.23-254.988-37.369-221.947c128.356,57.419,97.86,234.707-29.965,129.539
				s-50.592-159.782-37.895-178.021c12.697-18.238,112.118-92.044,110.654-149.273C291.35,21.171,401.431,434.141,287.388,498.103z"
				/>
			<path style="fill:none;stroke:#75AEFA;stroke-width:0.5;stroke-linecap:round;stroke-miterlimit:10;stroke-dasharray:0,2;" d="
				M286.094,500.591c-93.716,52.761-109.682-253.714-35.55-221.061c128.053,56.404,94.602,232.955-33.654,128.931
				s-48.127-160.023-35.91-177.542s111.529-90.828,111.356-148.312C292.164,25.122,400.169,436.368,286.094,500.591z"/>
			<path style="fill:none;stroke:#76ADFA;stroke-width:0.5;stroke-linecap:round;stroke-miterlimit:10;stroke-dasharray:0,2;" d="
				M284.451,503.133c-93.489,52.832-108.144-252.433-33.73-220.174c127.755,55.383,91.343,231.202-37.342,128.323
				s-45.661-160.264-33.925-177.063c11.736-16.8,110.939-89.612,112.058-147.351C292.63,29.128,398.558,438.65,284.451,503.133z"/>
			<path style="fill:none;stroke:#76ACFA;stroke-width:0.5;stroke-linecap:round;stroke-miterlimit:10;stroke-dasharray:0,2;" d="
				M282.68,505.527c-93.262,52.903-106.615-251.144-31.911-219.287c127.463,54.355,88.084,229.45-41.031,127.715
				S166.542,253.45,177.797,237.37c11.255-16.08,110.35-88.396,112.76-146.39S396.819,440.782,282.68,505.527z"/>
			<path style="fill:none;stroke:#77ACFA;stroke-width:0.5;stroke-linecap:round;stroke-miterlimit:10;stroke-dasharray:0,2;" d="
				M281.422,507.721c-93.036,52.973-105.094-249.846-30.092-218.401c127.176,53.32,84.826,227.697-44.72,127.106
				c-129.545-100.591-40.73-160.745-29.956-176.106c10.775-15.361,109.76-87.18,113.462-145.429
				C293.818,36.642,395.593,442.714,281.422,507.721z"/>
			<path style="fill:none;stroke:#77ABFA;stroke-width:0.5;stroke-linecap:round;stroke-miterlimit:10;stroke-dasharray:0,2;" d="
				M280.628,509.927c-92.809,53.043-103.582-248.54-28.273-217.514c126.894,52.278,81.567,225.945-48.408,126.498
				c-129.976-99.446-38.265-160.985-27.971-175.627c10.294-14.641,109.171-85.965,114.164-144.468
				C295.132,40.312,394.83,444.658,280.628,509.927z"/>
			<path style="fill:none;stroke:#78AAFA;stroke-width:0.5;stroke-linecap:round;stroke-miterlimit:10;stroke-dasharray:0,2;" d="
				M280.28,512.141c-92.583,53.112-102.079-247.225-26.454-216.628c126.618,51.229,78.309,224.192-52.097,125.89
				s-35.799-161.226-25.986-175.148c9.813-13.922,108.581-84.749,114.866-143.507C296.893,43.989,394.514,446.608,280.28,512.141z"
				/>
			<path style="fill:none;stroke:#78A9FA;stroke-width:0.5;stroke-linecap:round;stroke-miterlimit:10;stroke-dasharray:0,2;" d="
				M280.362,514.356c-92.357,53.181-100.585-245.901-24.635-215.741c126.347,50.173,75.05,222.439-55.786,125.282
				S166.607,262.43,175.94,249.228c9.333-13.203,107.992-83.533,115.568-142.547S394.626,448.56,280.362,514.356z"/>
			<path style="fill:none;stroke:#79A8FA;stroke-width:0.5;stroke-linecap:round;stroke-miterlimit:10;stroke-dasharray:0,2;" d="
				M280.855,516.567C188.724,569.817,181.757,272,258.039,301.713c126.082,49.109,71.792,220.687-59.474,124.674
				s-30.868-161.707-22.017-174.191c8.852-12.483,107.402-82.317,116.27-141.586C301.685,51.343,395.15,450.508,280.855,516.567z"/>
			<path style="fill:none;stroke:#79A8FA;stroke-width:0.5;stroke-linecap:round;stroke-miterlimit:10;stroke-dasharray:0,2;" d="
				M281.743,518.769c-91.905,53.318-97.621-243.223-20.997-213.968c125.821,48.039,68.533,218.934-63.163,124.066
				s-28.403-161.948-20.032-173.712c8.371-11.764,106.812-81.101,116.971-140.624S396.068,452.445,281.743,518.769z"/>
			<path style="fill:none;stroke:#79A7FA;stroke-width:0.5;stroke-linecap:round;stroke-miterlimit:10;stroke-dasharray:0,2;" d="
				M283.007,520.955c-91.68,53.385-96.151-241.869-19.178-213.081c125.564,46.961,65.274,217.182-66.852,123.458
				c-132.126-93.724-25.938-162.188-18.047-173.233c7.891-11.044,106.223-79.886,117.673-139.664
				C308.055,58.658,397.363,454.366,283.007,520.955z"/>
			<path style="fill:none;stroke:#7AA6FA;stroke-width:0.5;stroke-linecap:round;stroke-miterlimit:10;stroke-dasharray:0,2;" d="
				M284.631,523.121c-91.455,53.452-94.689-240.505-17.359-212.195c125.313,45.876,62.016,215.429-70.54,122.85
				S173.26,271.347,180.67,261.022c7.41-10.325,105.633-78.67,118.375-138.703C311.787,62.287,399.017,456.267,284.631,523.121z"/>
			<path style="fill:none;stroke:#7AA5FA;stroke-width:0.5;stroke-linecap:round;stroke-miterlimit:10;stroke-dasharray:0,2;" d="
				M286.597,525.26c-91.23,53.519-93.235-239.129-15.54-211.308c125.066,44.784,58.757,213.676-74.229,122.242
				s-21.006-162.67-14.077-172.275c6.929-9.605,105.044-77.454,119.077-137.741C315.861,65.889,401.012,458.14,286.597,525.26z"/>
			<path style="fill:none;stroke:#7BA4FA;stroke-width:0.5;stroke-linecap:round;stroke-miterlimit:10;stroke-dasharray:0,2;" d="
				M288.887,527.367c-91.005,53.585-91.788-237.742-13.721-210.421c124.823,43.683,55.499,211.924-77.918,121.633
				c-133.416-90.29-18.541-162.91-12.093-171.796c6.449-8.886,104.454-76.238,119.779-136.781
				C320.26,69.46,403.332,459.981,288.887,527.367z"/>
			<path style="fill:none;stroke:#7BA4FA;stroke-width:0.5;stroke-linecap:round;stroke-miterlimit:10;stroke-dasharray:0,2;" d="
				M291.485,529.437c-90.781,53.651-90.349-236.344-11.902-209.535c124.585,42.576,52.24,210.171-81.606,121.025
				C64.13,351.782,181.901,277.777,187.868,269.61c5.968-8.167,103.865-75.022,120.481-135.82S405.958,461.784,291.485,529.437z"/>
			<path style="fill:none;stroke:#7CA3FA;stroke-width:0.5;stroke-linecap:round;stroke-miterlimit:10;stroke-dasharray:0,2;" d="
				M294.372,531.464c-90.556,53.717-88.917-234.933-10.083-208.648c124.351,41.461,48.981,208.419-85.295,120.417
				s-13.61-163.392-8.123-170.839c5.487-7.447,103.275-73.806,121.183-134.859C329.961,76.483,408.874,463.543,294.372,531.464z"/>
			<path style="fill:none;stroke:#7CA2FA;stroke-width:0.5;stroke-linecap:round;stroke-miterlimit:10;stroke-dasharray:0,2;" d="
				M297.531,533.441c-90.333,53.782-87.492-233.51-8.264-207.762c124.12,40.338,45.723,206.666-88.984,119.809
				c-134.707-86.857-11.145-163.632-6.138-170.36c5.006-6.728,102.686-72.591,121.885-133.898
				C335.229,79.924,412.062,465.252,297.531,533.441z"/>
			<path style="fill:none;stroke:#7DA1FA;stroke-width:0.5;stroke-linecap:round;stroke-miterlimit:10;stroke-dasharray:0,2;" d="
				M300.946,535.365c-90.109,53.846-86.073-232.075-6.445-206.875c123.893,39.208,42.464,204.913-92.672,119.201
				s-8.679-163.873-4.153-169.881c4.526-6.008,102.096-71.375,122.587-132.937C340.752,83.311,415.505,466.907,300.946,535.365z"/>
			<path style="fill:none;stroke:#7DA1FA;stroke-width:0.5;stroke-linecap:round;stroke-miterlimit:10;stroke-dasharray:0,2;" d="
				M304.598,537.228c-89.885,53.911-84.661-230.626-4.626-205.989c123.67,38.07,39.206,203.161-96.361,118.593
				s-6.214-164.113-2.169-169.402s101.507-70.159,123.289-131.976C346.513,86.637,419.185,468.501,304.598,537.228z"/>
			<path style="fill:none;stroke:#7EA0FA;stroke-width:0.5;stroke-linecap:round;stroke-miterlimit:10;stroke-dasharray:0,2;" d="
				M308.471,539.025c-89.662,53.974-83.255-229.164-2.807-205.102c123.451,36.925,35.947,201.408-100.05,117.985
				c-135.997-83.423-3.748-164.354-0.184-168.924c3.564-4.57,100.917-68.943,123.99-131.015
				C352.494,89.898,423.086,470.03,308.471,539.025z"/>
			<path style="fill:none;stroke:#7E9FFA;stroke-width:0.5;stroke-linecap:round;stroke-miterlimit:10;stroke-dasharray:0,2;" d="
				M312.546,540.752c-89.439,54.038-81.855-227.689-0.988-204.215c123.234,35.771,32.688,199.656-103.738,117.377
				c-136.427-82.279-1.283-164.595,1.801-168.445c3.084-3.85,100.328-67.727,124.692-130.054
				C358.679,93.088,427.189,471.486,312.546,540.752z"/>
			<path style="fill:none;stroke:#7F9EFA;stroke-width:0.5;stroke-linecap:round;stroke-miterlimit:10;stroke-dasharray:0,2;" d="
				M316.808,542.401c-89.216,54.101-80.46-226.199,0.831-203.329c123.02,34.611,29.43,197.903-107.427,116.769
				s1.183-164.835,3.786-167.966c2.603-3.131,99.738-66.512,125.394-129.093C365.049,96.201,431.477,472.865,316.808,542.401z"/>
			<path style="fill:none;stroke:#7F9DFA;stroke-width:0.5;stroke-linecap:round;stroke-miterlimit:10;stroke-dasharray:0,2;" d="
				M321.238,543.968c-88.993,54.163-79.07-224.696,2.65-202.442c122.809,33.442,26.171,196.15-111.116,116.161
				c-137.287-79.99,3.648-165.076,5.771-167.487c2.122-2.411,99.148-65.296,126.096-128.132
				C371.587,99.232,435.934,474.161,321.238,543.968z"/>
			<path style="fill:none;stroke:#809DFA;stroke-width:0.5;stroke-linecap:round;stroke-miterlimit:10;stroke-dasharray:0,2;" d="
				M325.819,545.448c-88.771,54.226-77.686-223.177,4.469-201.556c122.601,32.266,22.913,194.398-114.804,115.552
				c-137.717-78.846,6.114-165.317,7.755-167.009c1.642-1.692,98.559-64.08,126.798-127.171
				C378.277,102.174,440.542,475.369,325.819,545.448z"/>
			<path style="fill:none;stroke:#809CFA;stroke-width:0.5;stroke-linecap:round;stroke-miterlimit:10;stroke-dasharray:0,2;" d="
				M330.535,546.833c-88.549,54.287-76.306-221.644,6.288-200.669c122.394,31.082,19.654,192.645-118.493,114.944
				s8.579-165.557,9.74-166.53c1.161-0.973,97.969-62.864,127.5-126.21C385.101,105.023,445.284,476.483,330.535,546.833z"/>
			<path style="fill:none;stroke:#819BFA;stroke-width:0.5;stroke-linecap:round;stroke-miterlimit:10;stroke-dasharray:0,2;" d="
				M335.367,548.119c-88.327,54.349-74.93-220.095,8.107-199.783c122.19,29.891,16.396,190.893-122.182,114.336
				s11.045-165.798,11.725-166.051c0.68-0.253,97.38-61.648,128.202-125.249C392.042,107.773,450.142,477.496,335.367,548.119z"/>
			<path style="fill:none;stroke:#819AFA;stroke-width:0.5;stroke-linecap:round;stroke-miterlimit:10;stroke-dasharray:0,2;" d="
				M340.298,549.301c-88.105,54.41-73.558-218.531,9.927-198.896c121.988,28.691,13.137,189.14-125.87,113.728
				s13.51-166.038,13.71-165.572c0.199,0.466,96.79-60.433,128.904-124.288C399.082,110.418,455.099,478.405,340.298,549.301z"/>
			<path style="fill:none;stroke:#8299FA;stroke-width:0.5;stroke-linecap:round;stroke-miterlimit:10;stroke-dasharray:0,2;" d="
				M345.312,550.372c-87.884,54.471-72.19-216.952,11.746-198.009c121.788,27.485,9.878,187.387-129.559,113.12
				s15.976-166.279,15.695-165.093c-0.281,1.186,96.201-59.217,129.606-123.327S460.138,479.202,345.312,550.372z"/>
			<path style="fill:none;stroke:#8299FA;stroke-width:0.5;stroke-linecap:round;stroke-miterlimit:10;stroke-dasharray:0,2;" d="
				M350.392,551.326c-87.663,54.531-70.825-215.356,13.565-197.123c121.589,26.27,6.62,185.635-133.248,112.512
				c-139.868-73.123,18.441-166.52,17.679-164.615c-0.762,1.905,95.611-58.001,130.308-122.366
				C413.392,115.37,465.242,479.883,350.392,551.326z"/>
			<path style="fill:none;stroke:#8398FA;stroke-width:0.5;stroke-linecap:round;stroke-miterlimit:10;stroke-dasharray:0,2;" d="
				M355.519,552.16c-87.442,54.591-69.462-213.744,15.384-196.236c121.391,25.048,3.361,183.882-136.936,111.904
				s20.907-166.76,19.664-164.136s95.022-56.785,131.01-121.405S470.394,480.442,355.519,552.16z"/>
			<path style="fill:none;stroke:#8397FA;stroke-width:0.5;stroke-linecap:round;stroke-miterlimit:10;stroke-dasharray:0,2;" d="
				M360.677,552.865c-87.221,54.65-68.102-212.115,17.203-195.35c121.194,23.819,0.103,182.13-140.625,111.296
				c-140.728-70.834,23.372-167.001,21.649-163.657c-1.723,3.344,94.432-55.569,131.712-120.444
				C427.894,119.836,475.577,480.873,360.677,552.865z"/>
			<path style="fill:none;stroke:#8496FA;stroke-width:0.5;stroke-linecap:round;stroke-miterlimit:10;stroke-dasharray:0,2;" d="
				M365.849,553.439c-87.001,54.709-66.743-210.47,19.022-194.463c120.998,22.583-3.156,180.377-144.314,110.688
				s25.838-167.241,23.634-163.178c-2.204,4.064,93.843-54.354,132.413-119.483C435.175,121.873,480.772,481.17,365.849,553.439z"/>
			<path style="fill:none;stroke:#8496FA;stroke-width:0.5;stroke-linecap:round;stroke-miterlimit:10;stroke-dasharray:0,2;" d="
				M371.017,553.873c-86.781,54.768-65.387-208.807,20.841-193.576c120.803,21.338-6.415,178.625-148.003,110.08
				s28.303-167.482,25.619-162.699c-2.685,4.783,93.253-53.138,133.115-118.522C442.451,123.771,485.964,481.329,371.017,553.873z"
				/>
			<path style="fill:none;stroke:#8595FA;stroke-width:0.5;stroke-linecap:round;stroke-miterlimit:10;stroke-dasharray:0,2;" d="
				M376.165,553.762c-86.561,54.826-63.877-177.358,22.66-192.69c120.394-21.33-9.673,176.872-151.691,109.471
				s30.769-167.723,27.603-162.22c-3.165,5.502,92.664-51.922,133.817-117.561S491.135,480.941,376.165,553.762z"/>
			<path style="fill:none;stroke:#8594FA;stroke-width:0.5;stroke-linecap:round;stroke-miterlimit:10;stroke-dasharray:0,2;" d="
				M381.275,553.897c-86.341,54.884-62.241-175.642,24.479-191.803c119.813-22.328-12.932,175.119-155.38,108.863
				s33.234-167.963,29.588-161.742s92.074-50.706,134.519-116.6S496.268,480.799,381.275,553.897z"/>
			<path style="fill:none;stroke:#8693FA;stroke-width:0.5;stroke-linecap:round;stroke-miterlimit:10;stroke-dasharray:0,2;" d="
				M386.33,553.877c-86.122,54.942-60.603-173.921,26.298-190.917c119.235-23.32-16.19,173.367-159.069,108.255
				s35.7-168.204,31.573-161.263c-4.127,6.941,91.484-49.49,135.221-115.639C464.09,128.165,501.345,480.502,386.33,553.877z"/>
			<path style="fill:none;stroke:#8692FA;stroke-width:0.5;stroke-linecap:round;stroke-miterlimit:10;stroke-dasharray:0,2;" d="
				M391.313,553.696c-85.903,54.999-58.964-172.193,28.117-190.03c118.659-24.305-19.449,171.614-162.757,107.647
				c-143.308-63.967,38.165-168.444,33.558-160.784c-4.607,7.66,90.895-48.275,135.923-114.678
				C471.181,129.448,506.351,480.043,391.313,553.696z"/>
			<path style="fill:none;stroke:#8692FA;stroke-width:0.5;stroke-linecap:round;stroke-miterlimit:10;stroke-dasharray:0,2;" d="
				M396.207,553.349c-85.684,55.056-57.322-170.461,29.936-189.143c118.085-25.284-22.707,169.862-166.446,107.039
				C115.958,408.422,300.328,302.56,295.24,310.94c-5.088,8.38,90.305-47.059,136.625-113.717
				C478.184,130.564,511.267,479.417,396.207,553.349z"/>
			<path style="fill:none;stroke:#8791FA;stroke-width:0.5;stroke-linecap:round;stroke-miterlimit:10;stroke-dasharray:0,2;" d="
				M400.995,552.83c-85.465,55.113-55.677-168.722,31.755-188.257c117.515-26.256-25.966,168.109-170.135,106.431
				s43.096-168.926,37.527-159.826c-5.569,9.099,89.716-45.843,137.327-112.756S516.076,478.619,400.995,552.83z"/>
			<path style="fill:none;stroke:#8790FA;stroke-width:0.5;stroke-linecap:round;stroke-miterlimit:10;stroke-dasharray:0,2;" d="
				M405.66,552.133c-85.247,55.169-54.03-166.978,33.574-187.37c116.948-27.222-29.225,166.357-173.823,105.823
				s45.562-169.166,39.512-159.348c-6.049,9.819,89.126-44.627,138.029-111.795C491.854,132.275,520.763,477.642,405.66,552.133z"/>
			<path style="fill:none;stroke:#888FFA;stroke-width:0.5;stroke-linecap:round;stroke-miterlimit:10;stroke-dasharray:0,2;" d="
				M410.185,551.253c-85.029,55.225-52.381-165.229,35.393-186.484c116.385-28.183-32.483,164.604-177.512,105.215
				s48.027-169.407,41.497-158.869c-6.53,10.538,88.537-43.411,138.731-110.834S525.308,476.482,410.185,551.253z"/>
			<path style="fill:none;stroke:#888EFA;stroke-width:0.5;stroke-linecap:round;stroke-miterlimit:10;stroke-dasharray:0,2;" d="
				M414.552,550.184c-84.811,55.28-50.729-163.474,37.212-185.597c115.824-29.137-35.742,162.851-181.201,104.607
				s50.492-169.648,43.482-158.39c-7.011,11.258,87.947-42.195,139.433-109.873C504.963,133.252,529.696,475.132,414.552,550.184z"
				/>
			<path style="fill:none;stroke:#898EFA;stroke-width:0.5;stroke-linecap:round;stroke-miterlimit:10;stroke-dasharray:0,2;" d="
				M418.745,548.92c-84.593,55.336-49.074-161.714,39.031-184.71c115.268-30.086-39,161.099-184.889,103.999
				s52.958-169.888,45.466-157.911c-7.492,11.977,87.358-40.98,140.134-108.912C511.265,133.452,533.909,473.587,418.745,548.92z"/>
			<path style="fill:none;stroke:#898DFA;stroke-width:0.5;stroke-linecap:round;stroke-miterlimit:10;stroke-dasharray:0,2;" d="
				M422.747,547.456c-84.376,55.39-47.416-159.949,40.85-183.824c114.715-31.029-42.259,159.346-188.578,103.39
				s55.424-170.129,47.451-157.432c-7.972,12.697,86.768-39.764,140.836-107.951C517.375,133.452,537.93,471.842,422.747,547.456z"
				/>
			<path style="fill:none;stroke:#8A8CFA;stroke-width:0.5;stroke-linecap:round;stroke-miterlimit:10;stroke-dasharray:0,2;" d="
				M426.541,545.787c-84.159,55.445-45.755-158.178,42.669-182.937c114.166-31.968-45.517,157.594-192.267,102.782
				s57.889-170.369,49.436-156.953c-8.453,13.416,86.179-38.548,141.538-106.99S541.743,469.89,426.541,545.787z"/>
			<path style="fill:none;stroke:#8A8BFA;stroke-width:0.5;stroke-linecap:round;stroke-miterlimit:10;stroke-dasharray:0,2;" d="
				M430.109,543.906c-83.942,55.499-44.09-156.401,44.488-182.051c113.621-32.901-48.776,155.841-195.955,102.174
				c-147.179-53.667,60.355-170.61,51.421-156.475c-8.934,14.135,85.589-37.332,142.24-106.029
				C528.954,132.829,545.33,467.727,430.109,543.906z"/>
			<path style="fill:none;stroke:#8B8AFA;stroke-width:0.5;stroke-linecap:round;stroke-miterlimit:10;stroke-dasharray:0,2;" d="
				M433.434,541.809c-83.725,55.553-42.423-154.62,46.307-181.164c113.081-33.829-52.035,154.088-199.644,101.566
				c-147.609-52.522,62.82-170.851,53.406-155.996c-9.414,14.855,85-36.116,142.942-105.068
				C534.388,132.195,548.674,465.346,433.434,541.809z"/>
			<path style="fill:none;stroke:#8B8AFA;stroke-width:0.5;stroke-linecap:round;stroke-miterlimit:10;stroke-dasharray:0,2;" d="
				M436.5,539.489c-83.509,55.606-40.751-152.833,48.126-180.278c112.545-34.753-55.293,152.336-203.333,100.958
				c-148.039-51.378,65.285-171.091,55.391-155.517c-9.895,15.574,84.41-34.901,143.644-104.107S551.758,462.742,436.5,539.489z"/>
			<path style="fill:none;stroke:#8C89FA;stroke-width:0.5;stroke-linecap:round;stroke-miterlimit:10;stroke-dasharray:0,2;" d="
				M439.29,536.941c-83.293,55.659-39.076-151.041,49.945-179.391c112.013-35.671-58.552,150.583-207.021,100.35
				s67.751-171.332,57.375-155.038c-10.376,16.293,83.82-33.685,144.346-103.146C544.461,130.253,554.565,459.909,439.29,536.941z"
				/>
			<path style="fill:none;stroke:#8C88FA;stroke-width:0.5;stroke-linecap:round;stroke-miterlimit:10;stroke-dasharray:0,2;" d="
				M441.786,534.159c-83.077,55.712-37.397-149.244,51.764-178.504c111.485-36.586-61.81,148.831-210.71,99.742
				s70.217-171.573,59.36-154.56c-10.856,17.013,83.231-32.469,145.048-102.185S557.078,456.843,441.786,534.159z"/>
			<path style="fill:none;stroke:#8D87FA;stroke-width:0.5;stroke-linecap:round;stroke-miterlimit:10;stroke-dasharray:0,2;" d="
				M443.972,531.138c-82.861,55.765-35.715-147.442,53.583-177.618c110.963-37.496-65.069,147.078-214.399,99.134
				s72.682-171.813,61.345-154.081c-11.337,17.732,82.641-31.253,145.75-101.224C553.359,127.377,559.281,453.536,443.972,531.138z"
				/>
			<path style="fill:none;stroke:#8D87FA;stroke-width:0.5;stroke-linecap:round;stroke-miterlimit:10;stroke-dasharray:0,2;" d="
				M445.83,527.872c-82.646,55.817-34.028-145.635,55.402-176.731c110.445-38.403-68.328,145.325-218.087,98.526
				c-149.76-46.8,75.147-172.054,63.33-153.602c-11.818,18.452,82.052-30.037,146.452-100.263S561.155,449.984,445.83,527.872z"/>
			<path style="fill:none;stroke:#8E86FA;stroke-width:0.5;stroke-linecap:round;stroke-miterlimit:10;stroke-dasharray:0,2;" d="
				M447.343,524.355c-82.431,55.868-32.337-143.823,57.221-175.845c109.932-39.305-71.586,143.573-221.776,97.917
				s77.613-172.294,65.315-153.123c-12.298,19.171,81.462-28.822,147.154-99.302C560.948,123.521,562.685,446.181,447.343,524.355z"
				/>
			<path style="fill:none;stroke:#8E85FA;stroke-width:0.5;stroke-linecap:round;stroke-miterlimit:10;stroke-dasharray:0,2;" d="
				M448.61,520.21c-82.216,55.92-30.642-142.007,59.04-174.958c109.424-40.204-74.845,141.82-225.465,97.309
				s80.078-172.535,67.299-152.644c-12.779,19.891,80.873-27.606,147.855-98.341C564.323,120.84,563.967,441.749,448.61,520.21z"/>
			<path style="fill:none;stroke:#8F84FA;stroke-width:0.5;stroke-linecap:round;stroke-miterlimit:10;stroke-dasharray:0,2;" d="
				M450.233,515.039c-82.002,55.971-28.943-140.185,60.86-174.072c108.921-41.1-78.103,140.068-229.154,96.701
				c-151.05-43.366,82.544-172.776,69.284-152.165c-13.26,20.61,80.283-26.39,148.557-97.381S565.606,436.291,450.233,515.039z"/>
			<path style="fill:none;stroke:#8F83FA;stroke-width:0.5;stroke-linecap:round;stroke-miterlimit:10;stroke-dasharray:0,2;" d="
				M452.083,510.218c-81.788,56.022-27.239-138.359,62.679-173.185c108.423-41.992-81.362,138.315-232.842,96.093
				c-151.48-42.222,85.009-173.016,71.269-151.687s79.694-25.174,149.259-96.42S567.469,431.181,452.083,510.218z"/>
			<path style="fill:none;stroke:#9083FA;stroke-width:0.5;stroke-linecap:round;stroke-miterlimit:10;stroke-dasharray:0,2;" d="
				M454.15,505.736c-81.574,56.073-25.531-136.529,64.498-172.298c107.93-42.882-84.62,136.562-236.531,95.485
				c-151.91-41.077,87.475-173.257,73.254-151.208c-14.221,22.049,79.104-23.958,149.961-95.458
				C576.189,110.757,569.551,426.411,454.15,505.736z"/>
			<path style="fill:none;stroke:#9082FA;stroke-width:0.5;stroke-linecap:round;stroke-miterlimit:10;stroke-dasharray:0,2;" d="
				M456.427,501.586c-81.36,56.123-23.818-134.694,66.317-171.412c107.443-43.768-87.879,134.81-240.219,94.877
				s89.94-173.497,75.238-150.729c-14.702,22.768,78.515-22.742,150.663-94.498C580.575,108.07,571.842,421.972,456.427,501.586z"/>
			<path style="fill:none;stroke:#9181FA;stroke-width:0.5;stroke-linecap:round;stroke-miterlimit:10;stroke-dasharray:0,2;" d="
				M458.908,497.758c-81.147,56.173-22.101-132.855,68.136-170.525c106.961-44.652-91.138,133.057-243.908,94.269
				s92.406-173.738,77.223-150.25c-15.183,23.488,77.925-21.527,151.365-93.537S574.336,417.854,458.908,497.758z"/>
			<path style="fill:none;stroke:#9180FA;stroke-width:0.5;stroke-linecap:round;stroke-miterlimit:10;stroke-dasharray:0,2;" d="
				M461.583,494.243c-80.933,56.222-20.379-131.012,69.955-169.639c106.484-45.533-94.396,131.305-247.597,93.661
				s94.871-173.979,79.208-149.771c-15.663,24.207,77.336-20.311,152.067-92.576C589.947,103.654,577.024,414.049,461.583,494.243z"
				/>
			<path style="fill:none;stroke:#927FFA;stroke-width:0.5;stroke-linecap:round;stroke-miterlimit:10;stroke-dasharray:0,2;" d="
				M464.446,491.034c-80.721,56.272-18.652-129.164,71.774-168.752c106.013-46.411-97.655,129.552-251.285,93.053
				s97.337-174.219,81.193-149.293c-16.144,24.926,76.746-19.095,152.769-91.615S579.9,410.549,464.446,491.034z"/>
			<path style="fill:none;stroke:#927FFA;stroke-width:0.5;stroke-linecap:round;stroke-miterlimit:10;stroke-dasharray:0,2;" d="
				M467.489,488.12c-80.508,56.321-16.92-127.313,73.593-167.865c105.547-47.288-100.913,127.799-254.974,92.445
				c-154.061-35.355,99.802-174.46,83.178-148.814c-16.625,25.646,76.156-17.879,153.471-90.654
				C600.071,100.457,582.955,407.344,467.489,488.12z"/>
			<path style="fill:none;stroke:#937EFA;stroke-width:0.5;stroke-linecap:round;stroke-miterlimit:10;stroke-dasharray:0,2;" d="
				M470.584,485.494c-80.296,56.37-15.184-125.458,75.412-166.979c105.087-48.163-104.172,126.047-258.663,91.836
				c-154.491-34.21,102.268-174.7,85.162-148.335c-17.105,26.365,75.567-16.663,154.173-89.693
				C605.273,99.295,586.06,404.426,470.584,485.494z"/>
			<path style="fill:none;stroke:#937DFA;stroke-width:0.5;stroke-linecap:round;stroke-miterlimit:10;stroke-dasharray:0,2;" d="
				M473.833,483.146c-80.084,56.418-13.442-123.599,77.231-166.092c104.632-49.036-107.431,124.294-262.352,91.228
				c-154.921-33.066,104.733-174.941,87.147-147.856c-17.586,27.085,74.977-15.448,154.875-88.732
				C610.631,98.41,589.321,401.786,473.833,483.146z"/>
			<path style="fill:none;stroke:#937CFA;stroke-width:0.5;stroke-linecap:round;stroke-miterlimit:10;stroke-dasharray:0,2;" d="
				M477.237,481.068c-79.872,56.466-11.695-121.736,79.05-165.206c104.183-49.907-110.689,122.542-266.04,90.62
				s107.199-175.182,89.132-147.377c-18.067,27.804,74.388-14.232,155.577-87.771C616.143,97.795,592.735,399.415,477.237,481.068z"
				/>
			<path style="fill:none;stroke:#947CFA;stroke-width:0.5;stroke-linecap:round;stroke-miterlimit:10;stroke-dasharray:0,2;" d="
				M480.787,479.251c-79.661,56.514-9.943-119.87,80.869-164.319c103.74-50.777-113.948,120.789-269.729,90.012
				s109.664-175.422,91.117-146.899c-18.547,28.524,73.798-13.016,156.278-86.81C621.802,97.442,596.296,397.305,480.787,479.251z"
				/>
			<path style="fill:none;stroke:#947BFA;stroke-width:0.5;stroke-linecap:round;stroke-miterlimit:10;stroke-dasharray:0,2;" d="
				M484.476,477.686c-79.449,56.562-8.186-118,82.688-163.432c103.302-51.646-117.206,119.036-273.418,89.404
				c-156.211-29.633,112.13-175.663,93.102-146.42c-19.028,29.243,73.209-11.8,156.98-85.849S599.995,395.445,484.476,477.686z"/>
			<path style="fill:none;stroke:#957AFA;stroke-width:0.5;stroke-linecap:round;stroke-miterlimit:10;stroke-dasharray:0,2;" d="
				M488.297,476.364c-79.239,56.609-6.424-116.127,84.507-162.546c102.87-52.513-120.465,117.284-277.106,88.796
				c-156.641-28.488,114.595-175.904,95.086-145.941c-19.509,29.962,72.619-10.584,157.682-84.888
				C633.53,97.482,603.825,393.829,488.297,476.364z"/>
			<path style="fill:none;stroke:#9579FA;stroke-width:0.5;stroke-linecap:round;stroke-miterlimit:10;stroke-dasharray:0,2;" d="
				M492.242,475.277c-79.028,56.656-4.657-114.251,86.326-161.659c102.444-53.38-123.723,115.531-280.795,88.188
				c-157.071-27.344,117.061-176.144,97.071-145.462s72.03-9.368,158.384-83.927C639.583,97.858,607.778,392.448,492.242,475.277z"
				/>
			<path style="fill:none;stroke:#9678FA;stroke-width:0.5;stroke-linecap:round;stroke-miterlimit:10;stroke-dasharray:0,2;" d="
				M496.304,474.416c-78.818,56.703-2.885-112.373,88.145-160.773c102.024-54.245-126.982,113.779-284.484,87.58
				c-157.501-26.199,119.526-176.385,99.056-144.983c-20.47,31.401,71.44-8.153,159.086-82.966S611.848,391.291,496.304,474.416z"/>
			<path style="fill:none;stroke:#9678FA;stroke-width:0.5;stroke-linecap:round;stroke-miterlimit:10;stroke-dasharray:0,2;" d="
				M500.474,473.772c-78.608,56.749-1.107-110.491,89.964-159.886c101.609-55.11-130.241,112.026-288.172,86.972
				c-157.932-25.055,121.992-176.625,101.041-144.505c-20.951,32.121,70.851-6.937,159.788-82.005S616.026,390.351,500.474,473.772z
				"/>
			<path style="fill:none;stroke:#9777FA;stroke-width:0.5;stroke-linecap:round;stroke-miterlimit:10;stroke-dasharray:0,2;" d="
				M504.745,473.336c-78.398,56.796,0.676-108.607,91.783-159c101.2-55.975-133.499,110.274-291.861,86.363
				s124.457-176.866,103.026-144.026c-21.431,32.84,70.261-5.721,160.49-81.044C658.411,100.308,620.304,389.618,504.745,473.336z"
				/>
			<path style="fill:none;stroke:#9776FA;stroke-width:0.5;stroke-linecap:round;stroke-miterlimit:10;stroke-dasharray:0,2;" d="
				M509.11,473.1c-78.188,56.842,2.464-106.72,93.602-158.113c100.797-56.84-136.758,108.521-295.55,85.755
				s126.923-177.106,105.01-143.547c-21.912,33.56,69.672-4.505,161.192-80.083C664.885,101.535,624.676,389.085,509.11,473.1z"/>
			<path style="fill:none;stroke:#9875FA;stroke-width:0.5;stroke-linecap:round;stroke-miterlimit:10;stroke-dasharray:0,2;" d="
				M513.561,473.054c-77.979,56.887,4.257-104.83,95.421-157.226c100.399-57.704-140.016,106.768-299.238,85.147
				c-159.222-21.621,129.388-177.347,106.995-143.068c-22.393,34.279,69.082-3.289,161.894-79.122S629.133,388.742,513.561,473.054z
				"/>
			<path style="fill:none;stroke:#9874FA;stroke-width:0.5;stroke-linecap:round;stroke-miterlimit:10;stroke-dasharray:0,2;" d="
				M518.09,473.19c-77.77,56.933,6.055-102.938,97.24-156.34c100.008-58.568-143.275,105.016-302.927,84.539
				c-159.652-20.477,131.854-177.588,108.98-142.589c-22.874,34.998,68.492-2.074,162.595-78.161
				C678.082,104.552,633.668,388.58,518.09,473.19z"/>
			<path style="fill:none;stroke:#9974FA;stroke-width:0.5;stroke-linecap:round;stroke-miterlimit:10;stroke-dasharray:0,2;" d="
				M522.691,473.5c-77.561,56.978,7.859-101.045,99.059-155.453c99.621-59.432-146.534,103.263-306.616,83.931
				C155.052,382.646,449.453,224.15,426.099,259.867c-23.354,35.718,67.903-0.858,163.297-77.2S638.273,388.591,522.691,473.5z"/>
			<path style="fill:none;stroke:#9973FA;stroke-width:0.5;stroke-linecap:round;stroke-miterlimit:10;stroke-dasharray:0,2;" d="
				M527.354,473.974c-77.353,57.023,9.668-99.149,100.878-154.566c99.241-60.297-149.792,101.511-310.304,83.323
				c-160.512-18.188,136.785-178.069,112.949-141.632c-23.835,36.437,67.313,0.358,163.999-76.239S642.942,388.766,527.354,473.974z
				"/>
			<path style="fill:none;stroke:#9A72FA;stroke-width:0.5;stroke-linecap:round;stroke-miterlimit:10;stroke-dasharray:0,2;" d="
				M532.074,474.604c-77.145,57.068,11.482-97.251,102.698-153.68c98.866-61.162-153.051,99.758-313.993,82.715
				c-160.942-17.043,139.25-178.31,114.934-141.153s66.724,1.574,164.701-75.278C698.391,110.356,647.665,389.096,532.074,474.604z"
				/>
			<path style="fill:none;stroke:#9A71FA;stroke-width:0.5;stroke-linecap:round;stroke-miterlimit:10;stroke-dasharray:0,2;" d="
				M536.841,475.38c-76.937,57.112,13.301-95.351,104.516-152.793c98.497-62.028-156.309,98.005-317.682,82.107
				c-161.372-15.899,141.716-178.55,116.919-140.674c-24.796,37.876,66.134,2.79,165.403-74.317S652.436,389.572,536.841,475.38z"/>
			<path style="fill:none;stroke:#9B71FA;stroke-width:0.5;stroke-linecap:round;stroke-miterlimit:10;stroke-dasharray:0,2;" d="
				M541.65,476.295c-76.73,57.156,15.126-93.45,106.336-151.907c98.133-62.894-159.568,96.253-321.37,81.499
				c-161.802-14.754,144.181-178.791,118.904-140.195s65.545,4.005,166.105-73.356C712.184,114.974,657.247,390.185,541.65,476.295z
				"/>
			<path style="fill:none;stroke:#9B70FA;stroke-width:0.5;stroke-linecap:round;stroke-miterlimit:10;stroke-dasharray:0,2;" d="
				M546.491,477.339c-76.523,57.2,16.955-91.547,108.155-151.02c97.775-63.761-162.827,94.5-325.059,80.891
				c-162.233-13.61,146.647-179.032,120.889-139.717c-25.758,39.315,64.955,5.221,166.807-72.395S662.091,390.928,546.491,477.339z"
				/>
			<path style="fill:none;stroke:#9C6FFA;stroke-width:0.5;stroke-linecap:round;stroke-miterlimit:10;stroke-dasharray:0,2;" d="
				M551.357,478.503c-76.316,57.244,18.79-89.643,109.974-150.134c97.422-64.629-166.085,92.748-328.748,80.282
				C169.921,396.187,481.695,229.38,455.457,269.414c-26.238,40.034,64.366,6.437,167.509-71.434S666.96,391.79,551.357,478.503z"/>
			<path style="fill:none;stroke:#9C6EFA;stroke-width:0.5;stroke-linecap:round;stroke-miterlimit:10;stroke-dasharray:0,2;" d="
				M556.242,479.779c-76.109,57.287,20.63-87.738,111.793-149.247c97.075-65.498-169.344,90.995-332.436,79.674
				c-163.093-11.321,151.577-179.513,124.858-138.759c-26.719,40.754,63.776,7.653,168.211-70.473
				C733.102,122.848,671.846,392.764,556.242,479.779z"/>
			<path style="fill:none;stroke:#9D6DFA;stroke-width:0.5;stroke-linecap:round;stroke-miterlimit:10;stroke-dasharray:0,2;" d="
				M561.136,481.158c-75.903,57.331,22.474-85.832,113.612-148.36c96.733-66.368-172.602,89.242-336.125,79.066
				C175.1,401.688,492.666,232.111,465.466,273.584c-27.2,41.473,63.187,8.869,168.913-69.512
				C740.105,125.691,676.741,393.84,561.136,481.158z"/>
			<path style="fill:none;stroke:#9D6DFA;stroke-width:0.5;stroke-linecap:round;stroke-miterlimit:10;stroke-dasharray:0,2;" d="
				M566.034,482.631c-75.697,57.374,24.324-83.924,115.431-147.474c96.397-67.239-175.861,87.49-339.814,78.458
				s156.509-179.994,128.828-137.801c-27.681,42.193,62.597,10.084,169.615-68.551S681.639,395.01,566.034,482.631z"/>
			<path style="fill:none;stroke:#9E6CFA;stroke-width:0.5;stroke-linecap:round;stroke-miterlimit:10;stroke-dasharray:0,2;" d="
				M570.926,484.19c-75.491,57.416,26.178-82.016,117.25-146.587c96.066-68.112-179.119,85.737-343.502,77.85
				c-164.383-7.887,158.974-180.235,130.813-137.323c-28.161,42.912,62.008,11.3,170.317-67.59
				C754.112,131.65,686.531,396.264,570.926,484.19z"/>
			<path style="fill:none;stroke:#9E6BFA;stroke-width:0.5;stroke-linecap:round;stroke-miterlimit:10;stroke-dasharray:0,2;" d="
				M575.806,485.825c-75.286,57.459,28.037-80.107,119.069-145.701c95.74-68.986-182.378,83.985-347.191,77.242
				c-164.813-6.743,161.439-180.475,132.797-136.844C451.84,324.154,541.9,293.039,651.5,213.893
				C761.101,134.748,691.41,397.595,575.806,485.825z"/>
			<path style="fill:none;stroke:#9F6AFA;stroke-width:0.5;stroke-linecap:round;stroke-miterlimit:10;stroke-dasharray:0,2;" d="
				M580.666,487.528c-75.08,57.501,29.901-78.197,120.888-144.814c95.419-69.862-185.637,82.232-350.88,76.634
				c-165.243-5.598,163.905-180.716,134.782-136.365c-29.123,44.351,60.829,13.732,171.72-65.668
				C768.069,137.915,696.269,398.993,580.666,487.528z"/>
			<path style="fill:none;stroke:#9F69FA;stroke-width:0.5;stroke-linecap:round;stroke-miterlimit:10;stroke-dasharray:0,2;" d="
				M585.499,489.29c-74.876,57.543,31.77-76.287,122.707-143.927c95.103-70.739-188.895,80.479-354.569,76.026
				s166.37-180.956,136.767-135.886s60.239,14.948,172.422-64.707C775.01,141.14,701.099,400.449,585.499,489.29z"/>
			<path style="fill:none;stroke:#A069FA;stroke-width:0.5;stroke-linecap:round;stroke-miterlimit:10;stroke-dasharray:0,2;" d="
				M590.295,491.103c-74.671,57.585,33.643-74.377,124.526-143.041c94.793-71.618-192.154,78.727-358.257,75.418
				C190.461,420.17,525.4,242.282,495.316,288.072c-30.084,45.79,59.649,16.164,173.124-63.746
				C781.915,144.416,705.893,401.955,590.295,491.103z"/>
			<path style="fill:none;stroke:#A068FA;stroke-width:0.5;stroke-linecap:round;stroke-miterlimit:10;stroke-dasharray:0,2;" d="
				M595.05,492.956c-74.467,57.627,35.521-72.466,126.345-142.154c94.487-72.499-195.412,76.974-361.946,74.81
				c-166.534-2.165,171.301-181.438,140.737-134.928c-30.565,46.509,59.06,17.379,173.826-62.785S710.644,403.502,595.05,492.956z"
				/>
			<path style="fill:none;stroke:#A167FA;stroke-width:0.5;stroke-linecap:round;stroke-miterlimit:10;stroke-dasharray:0,2;" d="
				M599.753,494.843c-74.263,57.668,37.404-70.555,128.164-141.268c94.187-73.382-198.671,75.222-365.634,74.201
				c-166.964-1.02,173.767-181.678,142.721-134.45c-31.045,47.228,58.47,18.595,174.528-61.824S715.344,405.081,599.753,494.843z"/>
			<path style="fill:none;stroke:#A166FA;stroke-width:0.5;stroke-linecap:round;stroke-miterlimit:10;stroke-dasharray:0,2;" d="
				M604.399,496.753c-74.059,57.709,39.291-68.644,129.983-140.381c93.891-74.267-201.93,73.469-369.323,73.593
				c-167.394,0.124,176.232-181.919,144.706-133.971c-31.526,47.948,57.881,19.811,175.23-60.863
				C802.344,154.457,719.986,406.684,604.399,496.753z"/>
			<path style="fill:none;stroke:#A165FA;stroke-width:0.5;stroke-linecap:round;stroke-miterlimit:10;stroke-dasharray:0,2;" d="
				M608.979,498.679c-73.856,57.75,41.182-66.734,131.802-139.495c93.6-75.154-205.188,71.716-373.012,72.985
				c-167.824,1.269,178.698-182.16,146.691-133.492c-32.007,48.667,57.291,21.027,175.932-59.902S724.561,408.301,608.979,498.679z"
				/>
			<path style="fill:none;stroke:#A265FA;stroke-width:0.5;stroke-linecap:round;stroke-miterlimit:10;stroke-dasharray:0,2;" d="
				M613.486,500.611c-73.653,57.791,43.078-64.823,133.621-138.608c93.314-76.043-208.447,69.964-376.701,72.377
				c-168.254,2.413,181.163-182.4,148.676-133.013c-32.487,49.387,56.702,22.243,176.634-58.941S729.062,409.924,613.486,500.611z"
				/>
			<path style="fill:none;stroke:#A264FA;stroke-width:0.5;stroke-linecap:round;stroke-miterlimit:10;stroke-dasharray:0,2;" d="
				M617.912,502.54c-73.45,57.832,44.977-62.913,135.44-137.721c93.033-76.934-211.705,68.211-380.389,71.769
				c-168.684,3.558,183.629-182.641,150.661-132.534s56.112,23.458,177.336-57.98C822.183,164.634,733.482,411.544,617.912,502.54z"
				/>
			<path style="fill:none;stroke:#A363FA;stroke-width:0.5;stroke-linecap:round;stroke-miterlimit:10;stroke-dasharray:0,2;" d="
				M622.25,504.458c-73.247,57.872,46.881-61.002,137.259-136.835c92.756-77.828-214.964,66.459-384.078,71.161
				c-169.114,4.702,186.094-182.881,152.645-132.056s55.523,24.674,178.038-57.019C828.629,168.016,737.813,413.152,622.25,504.458z
				"/>
			<path style="fill:none;stroke:#A362FA;stroke-width:0.5;stroke-linecap:round;stroke-miterlimit:10;stroke-dasharray:0,2;" d="
				M626.492,506.356c-73.045,57.912,48.789-59.093,139.078-135.948c92.483-78.724-218.222,64.706-387.767,70.553
				c-169.544,5.847,188.56-183.122,154.63-131.577s54.933,25.89,178.74-56.058S742.048,414.74,626.492,506.356z"/>
			<path style="fill:none;stroke:#A462FA;stroke-width:0.5;stroke-linecap:round;stroke-miterlimit:10;stroke-dasharray:0,2;" d="
				M630.63,508.226c-72.843,57.952,50.702-57.184,140.897-135.062c92.216-79.622-221.481,62.954-391.455,69.945
				s191.025-183.363,156.615-131.098c-34.41,52.264,54.344,27.106,179.441-55.097C841.226,174.71,746.178,416.298,630.63,508.226z"
				/>
			<path style="fill:none;stroke:#A461FA;stroke-width:0.5;stroke-linecap:round;stroke-miterlimit:10;stroke-dasharray:0,2;" d="
				M634.657,510.057c-72.641,57.992,52.617-55.275,142.716-134.175c91.952-80.522-224.74,61.201-395.144,69.337
				S575.72,261.616,540.829,314.6c-34.891,52.984,53.754,28.322,180.143-54.137S750.196,417.818,634.657,510.057z"/>
			<path style="fill:none;stroke:#A560FA;stroke-width:0.5;stroke-linecap:round;stroke-miterlimit:10;stroke-dasharray:0,2;" d="
				M638.565,511.843c-72.44,58.032,54.537-53.368,144.535-133.289c91.693-81.425-227.998,59.448-398.833,68.729
				c-170.834,9.28,195.956-183.844,160.585-130.14c-35.372,53.703,53.165,29.537,180.845-53.176S754.096,419.291,638.565,511.843z"
				/>
			<path style="fill:none;stroke:#A55FFA;stroke-width:0.5;stroke-linecap:round;stroke-miterlimit:10;stroke-dasharray:0,2;" d="
				M642.347,513.573c-72.239,58.071,56.461-51.461,146.354-132.402c91.438-82.331-231.257,57.696-402.521,68.12
				C214.915,459.716,584.602,265.207,548.749,319.63c-35.852,54.423,52.575,30.753,181.547-52.215
				C859.269,184.447,757.867,420.709,642.347,513.573z"/>
			<path style="fill:none;stroke:#A65EFA;stroke-width:0.5;stroke-linecap:round;stroke-miterlimit:10;stroke-dasharray:0,2;" d="
				M645.995,515.239c-72.039,58.11,58.388-49.555,148.174-131.515c91.187-83.239-234.515,55.943-406.21,67.512
				c-171.695,11.569,200.887-184.325,164.554-129.183c-36.333,55.142,51.985,31.969,182.249-51.253
				C865.025,187.577,761.505,422.062,645.995,515.239z"/>
			<path style="fill:none;stroke:#A65EFA;stroke-width:0.5;stroke-linecap:round;stroke-miterlimit:10;stroke-dasharray:0,2;" d="
				M649.501,516.833c-71.838,58.149,60.318-47.65,149.993-130.629c90.94-84.15-237.774,54.191-409.899,66.904
				C217.47,465.822,592.947,268.542,556.134,324.404c-36.814,55.862,51.396,33.185,182.951-50.293S765,423.342,649.501,516.833z"/>
			<path style="fill:none;stroke:#A75DFA;stroke-width:0.5;stroke-linecap:round;stroke-miterlimit:10;stroke-dasharray:0,2;" d="
				M652.858,518.344c-71.638,58.188,62.252-45.746,151.812-129.742c90.697-85.063-241.032,52.438-413.587,66.296
				C218.527,468.756,596.9,270.092,559.606,326.673c-37.294,56.581,50.806,34.401,183.653-49.332
				C876.105,193.609,768.346,424.539,652.858,518.344z"/>
			<path style="fill:none;stroke:#A75CFA;stroke-width:0.5;stroke-linecap:round;stroke-miterlimit:10;stroke-dasharray:0,2;" d="
				M656.058,519.766c-71.438,58.227,64.19-43.843,153.631-128.856c90.458-85.979-244.291,50.685-417.276,65.688
				c-172.985,15.003,208.284-185.047,170.509-127.746c-37.775,57.3,50.217,35.617,184.355-48.371
				C881.414,196.494,771.534,425.646,656.058,519.766z"/>
			<path style="fill:none;stroke:#A85BFA;stroke-width:0.5;stroke-linecap:round;stroke-miterlimit:10;stroke-dasharray:0,2;" d="
				M659.094,521.088c-71.239,58.266,66.13-41.941,155.45-127.969c90.223-86.898-247.55,48.933-420.965,65.08
				s210.749-185.287,172.493-127.268c-38.256,58.02,49.627,36.832,185.057-47.41S774.557,426.653,659.094,521.088z"/>
			<path style="fill:none;stroke:#A85AFA;stroke-width:0.5;stroke-linecap:round;stroke-miterlimit:10;stroke-dasharray:0,2;" d="
				M661.958,522.303c-71.04,58.304,68.074-40.041,157.269-127.082c89.991-87.819-250.808,47.18-424.653,64.472
				s213.215-185.528,174.478-126.789c-38.736,58.739,49.038,38.048,185.759-46.449C891.531,201.958,777.407,427.552,661.958,522.303
				z"/>
			<path style="fill:none;stroke:#A95AFA;stroke-width:0.5;stroke-linecap:round;stroke-miterlimit:10;stroke-dasharray:0,2;" d="
				M664.643,523.401c-70.841,58.342,70.021-38.142,159.088-126.196c89.763-88.743-254.067,45.428-428.342,63.864
				c-174.275,18.436,215.68-185.769,176.463-126.31c-39.217,59.459,48.448,39.264,186.461-45.488S780.077,428.333,664.643,523.401z"
				/>
			<path style="fill:none;stroke:#A959FA;stroke-width:0.5;stroke-linecap:round;stroke-miterlimit:10;stroke-dasharray:0,2;" d="
				M667.14,524.373c-70.642,58.38,71.971-36.244,160.907-125.309c89.539-89.67-257.325,43.675-432.031,63.256
				C221.311,481.9,614.161,276.31,574.464,336.488c-39.698,60.178,47.859,40.48,187.162-44.527
				C900.93,206.955,782.559,428.988,667.14,524.373z"/>
			<path style="fill:none;stroke:#AA58FA;stroke-width:0.5;stroke-linecap:round;stroke-miterlimit:10;stroke-dasharray:0,2;" d="
				M669.442,525.211c-70.444,58.418,73.925-34.347,162.726-124.423c89.318-90.6-260.584,41.923-435.719,62.648
				C221.313,484.16,617.06,277.186,576.881,338.083c-40.178,60.897,47.269,41.695,187.864-43.566
				C905.341,209.256,784.846,429.509,669.442,525.211z"/>
			<path style="fill:none;stroke:#AA57FA;stroke-width:0.5;stroke-linecap:round;stroke-miterlimit:10;stroke-dasharray:0,2;" d="
				M671.542,525.906c-70.246,58.456,75.88-32.452,164.545-123.536c89.101-91.532-263.843,40.17-439.408,62.039
				c-175.565,21.869,223.076-186.491,182.417-124.874c-40.659,61.617,46.68,42.911,188.566-42.605S786.93,429.885,671.542,525.906z"
				/>
			<path style="fill:none;stroke:#AB57FA;stroke-width:0.5;stroke-linecap:round;stroke-miterlimit:10;stroke-dasharray:0,2;" d="
				M673.432,526.448c-70.049,58.493,77.839-30.559,166.364-122.649c88.887-92.467-267.101,38.417-443.097,61.431
				c-175.996,23.014,225.542-186.731,184.402-124.395c-41.14,62.336,46.09,44.127,189.268-41.644
				C913.548,213.421,788.802,430.11,673.432,526.448z"/>
			<path style="fill:none;stroke:#AB56FA;stroke-width:0.5;stroke-linecap:round;stroke-miterlimit:10;stroke-dasharray:0,2;" d="
				M675.105,526.831c-69.851,58.531,79.8-28.667,168.183-121.763c88.677-93.406-270.36,36.665-446.785,60.823
				C220.076,490.049,624.51,278.919,582.889,341.975c-41.62,63.056,45.501,45.343,189.97-40.683
				C917.329,215.266,790.457,430.173,675.105,526.831z"/>
			<path style="fill:none;stroke:#AC55FA;stroke-width:0.5;stroke-linecap:round;stroke-miterlimit:10;stroke-dasharray:0,2;" d="
				M676.552,527.043c-69.654,58.568,81.764-26.776,170.002-120.876c88.469-94.347-273.618,34.912-450.474,60.215
				S626.553,279.17,584.451,342.945c-42.101,63.775,44.911,46.559,190.672-39.722S791.886,430.066,676.552,527.043z"/>
			<path style="fill:none;stroke:#AC54FA;stroke-width:0.5;stroke-linecap:round;stroke-miterlimit:10;stroke-dasharray:0,2;" d="
				M677.766,527.109c-69.557,58.487,83.731-24.888,171.821-119.99c88.265-95.29-276.877,33.16-454.163,59.607
				s232.938-187.453,190.357-122.958c-42.582,64.495,44.321,47.775,191.374-38.761C924.207,218.471,792.916,429.616,677.766,527.109
				z"/>
			<path style="fill:none;stroke:#AD53FA;stroke-width:0.5;stroke-linecap:round;stroke-miterlimit:10;stroke-dasharray:0,2;" d="
				M678.74,526.948c-69.336,58.553,85.7-23,173.64-119.103c88.063-96.237-280.135,31.407-457.851,58.999
				c-177.716,27.592,235.404-187.694,192.341-122.48c-43.063,65.214,43.732,48.99,192.076-37.8
				C927.289,219.775,793.91,429.183,678.74,526.948z"/>
			<path style="fill:none;stroke:#AD53FA;stroke-width:0.5;stroke-linecap:round;stroke-miterlimit:10;stroke-dasharray:0,2;" d="
				M679.466,526.592c-69.116,58.62,87.671-21.115,175.459-118.216c87.865-97.186-283.394,29.654-461.54,58.391
				c-178.146,28.736,237.869-187.934,194.326-122.001s43.143,50.206,192.778-36.839S794.657,428.554,679.466,526.592z"/>
			<path style="fill:none;stroke:#AE52FA;stroke-width:0.5;stroke-linecap:round;stroke-miterlimit:10;stroke-dasharray:0,2;" d="
				M679.936,526.031c-68.895,58.686,89.644-19.231,177.278-117.33c87.67-98.139-286.653,27.902-465.229,57.783
				C213.409,496.365,632.32,278.309,588.296,344.962c-44.024,66.653,42.553,51.422,193.48-35.878
				C932.702,221.784,795.147,427.721,679.936,526.031z"/>
			<path style="fill:none;stroke:#AE51FA;stroke-width:0.5;stroke-linecap:round;stroke-miterlimit:10;stroke-dasharray:0,2;" d="
				M680.143,525.257C795.375,426.673,935.018,222.473,782.8,310.028s-238.686,102.289-194.182,34.917
				c44.505-67.372-377.302,152.069-198.296,121.043c179.006-31.025,556.395-156.268,468.918-57.174S611.469,584.009,680.143,525.257
				z"/>
		</g>
	</g>
</g>
</svg>
